<svg width="0" height="0" class="hidden">
  <symbol xmlns="http://www.w3.org/2000/svg" viewBox="0 0 32.5 25.5" id="arrow-up-right">
    <path fill="#092A30" d="M23.9 6.2c-3.8 10-12.7 16.9-23.4 18-.8.1-.8 1.3 0 1.2C11.7 24.3 21.1 17 25.1 6.5c.3-.7-.9-1-1.2-.3z"></path>
    <path fill="#092A30" d="M32.5 11.8c0-3.7 0-7.4-.1-11.1 0-.4-.3-.6-.6-.6-3.9-.4-7.6.8-10.5 3.3-.6.5.3 1.4.9.9 2.7-2.3 6.1-3.3 9.7-3l-.6-.6c0 3.7 0 7.4.1 11.1-.2.8 1.1.8 1.1 0z"></path>
  </symbol>
  <symbol xmlns="http://www.w3.org/2000/svg" viewBox="0 0 34.5 27.8" id="arrow-up-left">
    <path fill="#092A30" d="M8.3 7.6c4 10.5 13.3 17.8 24.6 18.9.8.1.8-1.2 0-1.2-10.6-1.1-19.6-8-23.4-18-.2-.8-1.4-.5-1.2.3z"></path>
    <path fill="#092A30" d="M2.3 12.8c0-3.7 0-7.4.1-11.1-.3.2-.5.4-.7.7 3.6-.4 6.9.6 9.7 2.9.6.6 1.5-.3.8-.8C9.2 2 5.6.8 1.7 1.2c-.3 0-.6.3-.6.6 0 3.7 0 7.4-.1 11.1 0 .7 1.3.7 1.3-.1z"></path>
  </symbol>
</svg>